<?xml version="1.0" standalone="no"?>
<!DOCTYPE svg PUBLIC "-//W3C//DTD SVG 20010904//EN"
 "http://www.w3.org/TR/2001/REC-SVG-20010904/DTD/svg10.dtd">
<svg version="1.0" xmlns="http://www.w3.org/2000/svg"
 width="635.000000pt" height="639.000000pt" viewBox="0 0 635.000000 639.000000"
 preserveAspectRatio="xMidYMid meet">
<metadata>
Created by potrace 1.16, written by Peter Selinger 2001-2019
</metadata>
<g transform="translate(0.000000,639.000000) scale(0.100000,-0.100000)"
fill="white" stroke="none">
<path d="M2 4888 c1 -827 3 -1485 5 -1463 56 662 289 1257 690 1760 114 143
359 388 498 498 829 656 1904 863 2905 560 667 -202 1260 -627 1668 -1196 297
-415 498 -926 566 -1437 12 -93 14 58 15 1338 l1 1442 -3175 0 -3175 0 2
-1502z"/>
<path d="M3140 4914 c-155 -9 -372 -61 -510 -122 -125 -54 -159 -73 -293 -163
-90 -62 -91 -63 -274 -278 -13 -14 -23 -29 -23 -33 0 -4 -6 -13 -13 -20 -11
-11 -86 -159 -108 -213 -30 -72 -80 -247 -94 -326 -9 -52 -21 -119 -28 -149
-17 -79 -16 -492 1 -550 7 -25 19 -65 26 -90 9 -30 11 -72 7 -125 -7 -90 1
-92 -69 20 -30 48 -80 95 -101 95 -31 0 -43 -96 -13 -107 44 -17 96 -73 112
-122 7 -23 18 -44 23 -48 9 -5 35 -9 149 -18 l66 -5 -5 167 c-4 132 -2 184 11
242 9 41 20 77 26 81 12 8 14 26 10 130 -2 61 -4 76 -10 55 -5 -23 -8 -8 -13
60 -10 125 -9 148 2 245 28 240 73 339 171 382 43 19 71 21 590 24 688 3 1451
-9 1503 -25 80 -25 141 -111 165 -231 36 -185 45 -361 22 -415 -5 -11 -11 -42
-14 -70 -3 -27 -8 -74 -11 -102 -3 -29 -1 -53 3 -53 15 0 31 -64 40 -160 14
-155 2 -312 -29 -373 -12 -24 -19 -58 -19 -93 0 -30 -7 -71 -15 -91 -8 -19
-15 -46 -15 -59 0 -12 -4 -25 -9 -29 -5 -3 -13 -20 -16 -38 -4 -17 -13 -45
-20 -62 -7 -16 -19 -48 -28 -70 -41 -107 -61 -152 -78 -174 -11 -13 -19 -30
-19 -37 0 -8 -4 -14 -9 -14 -5 0 -11 -10 -15 -23 -3 -12 -13 -31 -23 -42 -10
-11 -27 -37 -38 -58 -11 -20 -22 -37 -26 -37 -4 0 -9 -8 -13 -17 -8 -25 -45
-86 -59 -98 -7 -5 -30 -32 -52 -60 -40 -51 -199 -212 -227 -230 -63 -42 -97
-67 -120 -89 -15 -14 -31 -26 -36 -26 -5 0 -17 -9 -27 -20 -21 -23 -51 -19
-104 17 -70 47 -111 147 -111 268 0 70 -18 99 -69 110 -17 4 -33 11 -36 16 -8
12 -85 12 -85 -1 0 -5 -16 -12 -36 -16 -51 -9 -67 -41 -76 -144 -10 -130 -62
-219 -146 -251 -38 -15 -62 -5 -113 44 -25 24 -63 56 -85 73 -75 56 -264 239
-264 256 0 4 -7 8 -15 8 -8 0 -15 7 -15 14 0 8 -11 27 -25 42 -14 15 -25 32
-25 38 0 6 -9 19 -20 29 -19 16 -25 16 -86 2 -36 -8 -76 -15 -90 -15 -34 0
-30 -16 23 -95 84 -126 242 -271 411 -379 42 -27 77 -57 82 -71 9 -25 114
-141 210 -233 143 -137 333 -167 510 -80 51 25 92 59 188 156 68 69 127 135
132 148 8 21 68 66 108 82 9 3 22 10 27 14 6 5 39 30 75 57 67 50 171 147 229
214 111 128 240 378 278 536 3 12 22 41 43 62 36 38 39 39 103 39 71 0 93 17
30 22 -33 3 -38 7 -41 30 -2 15 15 85 37 155 22 71 47 169 57 218 20 110 43
158 92 189 56 35 65 50 58 91 -9 48 -29 53 -69 19 -34 -29 -107 -134 -107
-154 0 -5 -5 -10 -11 -10 -22 0 -1 228 29 315 25 72 20 426 -8 600 -30 187
-82 357 -151 503 l-50 102 -72 1 c-40 0 -193 4 -342 8 -260 8 -272 9 -325 33
-111 52 -202 161 -240 288 -21 71 -26 153 -11 192 4 13 11 39 15 59 l7 37 -48
10 c-53 12 -237 21 -323 16z"/>
<path d="M2372 3485 c-56 -17 -98 -47 -144 -102 -43 -50 -51 -93 -18 -93 11 0
45 14 74 30 72 41 166 43 276 7 148 -49 242 -59 307 -32 58 24 79 68 50 106
-20 26 -49 37 -122 44 -63 6 -106 12 -294 45 -67 12 -76 12 -129 -5z"/>
<path d="M3885 3466 c-33 -7 -109 -19 -168 -26 -122 -15 -157 -32 -157 -79 0
-81 138 -112 295 -65 213 64 282 64 373 -3 18 -14 40 -23 50 -21 24 5 27 42 5
69 -95 118 -135 139 -254 138 -46 0 -111 -6 -144 -13z"/>
<path d="M2405 3054 c-130 -27 -225 -90 -225 -150 0 -45 20 -48 81 -9 30 18
64 36 77 40 20 6 22 3 22 -33 0 -50 27 -130 49 -141 21 -11 138 -31 183 -31
20 0 60 13 93 31 54 29 58 29 70 12 13 -17 14 -17 29 2 8 11 16 25 16 30 0 6
4 16 9 24 7 12 15 10 43 -7 19 -12 42 -30 52 -41 24 -27 36 -18 36 25 0 77
-158 196 -316 238 -55 15 -170 20 -219 10z"/>
<path d="M3860 3035 c-57 -16 -154 -57 -158 -67 -2 -4 -10 -8 -17 -8 -8 0 -28
-13 -45 -30 -17 -16 -35 -30 -39 -30 -5 0 -11 -7 -15 -15 -3 -8 -11 -14 -17
-13 -7 2 -17 -20 -24 -50 -16 -70 0 -78 52 -28 46 44 74 44 85 0 14 -56 33
-64 154 -67 108 -2 109 -2 156 31 55 38 62 39 74 11 9 -19 11 -17 32 21 13 25
22 60 22 85 0 24 4 46 8 49 7 4 77 -33 125 -67 25 -17 53 3 50 38 -8 102 -275
186 -443 140z"/>
<path d="M2 1513 l-2 -1513 3175 0 3175 0 -1 1443 -1 1442 -19 -125 c-104
-691 -393 -1281 -872 -1777 -407 -421 -940 -727 -1509 -867 -499 -123 -1015
-126 -1509 -7 -933 223 -1724 865 -2133 1733 -166 350 -272 754 -299 1138 -2
25 -4 -636 -5 -1467z"/>
<path d="M3000 2335 c-17 -21 -7 -125 16 -164 10 -16 39 -42 66 -56 26 -14 48
-28 48 -31 0 -14 -73 -26 -219 -34 -202 -12 -227 -16 -235 -37 -16 -40 4 -42
266 -37 138 2 255 7 260 11 6 3 8 23 5 44 -3 26 -1 39 6 39 7 0 22 3 35 7 23
6 23 4 17 -40 -6 -40 -5 -47 15 -57 14 -8 39 -10 64 -6 22 4 127 1 233 -5 157
-11 194 -10 207 0 21 18 20 38 -3 51 -11 5 -88 14 -173 20 -84 5 -162 12 -173
14 -11 3 -32 7 -47 11 -32 6 -37 31 -9 40 77 24 122 125 98 218 -10 38 -22 34
-36 -15 -18 -61 -36 -85 -81 -108 -55 -28 -115 -34 -184 -20 -74 15 -130 67
-141 129 -7 44 -15 50 -35 26z"/>
<path d="M2810 1892 c0 -18 25 -29 100 -45 237 -51 456 -50 674 2 71 16 86 31
44 43 -44 12 -233 8 -326 -7 -73 -12 -98 -13 -115 -3 -28 15 -377 25 -377 10z"/>
</g>
</svg>
